/* XPM */
static char *result[] = {
/* columns rows colors chars-per-pixel */
"32 32 48 1 ",
"  c #C4A466",
". c #C9A466",
"X c #C7A867",
"o c #C6A56A",
"O c #CAA66A",
"+ c #CDAA6C",
"@ c #D2AC6E",
"# c #D5B16E",
"$ c #D9B26F",
"% c #C9A670",
"& c #CEAD71",
"* c #C6A97B",
"= c #C8AB7E",
"- c #D2AE71",
"; c #CFB070",
": c #CCB07E",
"> c #D5B173",
", c #DAB574",
"< c #DDB976",
"1 c #D5B478",
"2 c #DCB679",
"3 c #DDBA7A",
"4 c #E1BA76",
"5 c #E2B57A",
"6 c #E3BD7A",
"7 c #E8BE7E",
"8 c #E6C17C",
"9 c #EAC37E",
"0 c #EEC87F",
"q c #F0C77F",
"w c #C9B082",
"e c #D1B582",
"r c #D4B887",
"t c #D4BA8A",
"y c #DABE8C",
"u c #E5BF81",
"i c #E8BF82",
"p c #DCC28E",
"a c #DFC490",
"s c #E6C180",
"d c #EBC581",
"f c #EEC881",
"g c #E3C88F",
"h c #F0C782",
"j c #F1CA85",
"k c #E2C692",
"l c #E4C892",
"z c #E8CB95",
/* pixels */
"><889s6-+@,ddu+..%Oo +@,<,1>7d,-",
"<6s<+oooO+O  o O+---$454763d<>--",
"<6>+OoO%;++O.+@$1,,,54472>,3>@@-",
",-OO+&-<6000i7668dfd994@+&;>+->3",
"86<<33688>>;@$,+@@#@@..+1<21>188",
"88ff0d9>++O+++O+OOOoO++@62<33688",
"<68994,++;+%>##;>#++@@+->,2377d8",
"@----+++;,,<<66669dd6<,,>-,4d8<>",
"@,-+&&>,6679000ds<<<89992,,<1,>-",
",--+&-16669946<,>#$,<809,,2@@@-&",
",211>6668,@@&++%%oO+++++->-&+@->",
"78u664$@.OO.ooOo+++$,><66,322233",
"9dffd<,-+++&o +o&->--,<s9<3<6388",
"868966688888<,<4<6,>>2578f098900",
"--&++<<2,>><<<88ddd7256608<899<>",
"++Xo186>@@@3<,69d6,-,-,,,$><8<#;",
";>>1@. +;:1,@,,;++ooo@-++&+#>>+-",
"38886,-<363<63;+O&&&>@>@+->++;;>",
"8986,--19fdd<>1&&11368866,2>1,28",
"88,,@,>26fd<>>&;;13368q826666<38",
"<>@+-,,<@>>++-;11<<64,>@#0f36880",
"-+++&&-+;<<<>$<64>,>,666$+++183;",
"-++--&-,,466,,85,@-$<88<+ X+164,",
",,226676746$,4--@-2,<@O OO;1d86<",
"-><68999676465@@@;+@+,-@>1<<<,,@",
"-16669q9qqh94$-@-@$<66<,,<4,1>--",
",267884<66,,$-,,<6798,,,<86>-@--",
"267<@@+@++@@+@,$<,$O++@5<@+++@11",
"68-+@O@@--@+>-,>>@.+O,54>&+>,,23",
"95@-@@-@>,-,,2<<,<$,2,44->>11238",
"2>112262$,,3668dsjhhii5&&53236ui",
"rrtaazzkw*egkkklytyuie=wtkktkkky"
};
