/* XPM */
static char *result[] = {
/* columns rows colors chars-per-pixel */
"32 32 159 2 ",
"   c #46040A",
".  c #48070E",
"X  c #4D0A0C",
"o  c #520D0B",
"O  c #55100A",
"+  c #5B1509",
"@  c #5D1809",
"#  c #4A0B12",
"$  c #4C121A",
"%  c #52141B",
"&  c #57191A",
"*  c #581916",
"=  c #611B0B",
"-  c #691F09",
";  c #681E07",
":  c #6C2107",
">  c #6B2109",
",  c #732706",
"<  c #772A06",
"1  c #792B06",
"2  c #752A0A",
"3  c #712608",
"4  c #69261A",
"5  c #732B10",
"6  c #561A20",
"7  c #591E25",
"8  c #53222B",
"9  c #5D252B",
"0  c #59252B",
"q  c #5D2B33",
"w  c #5A353D",
"e  c #64363E",
"r  c #593A45",
"t  c #5D3F4A",
"y  c #653F41",
"u  c #5C404C",
"i  c #5D4551",
"p  c #674A4F",
"a  c #784A4F",
"s  c #664B53",
"d  c #744E51",
"f  c #794C51",
"g  c #775356",
"h  c #73545D",
"j  c #7D5756",
"k  c #5B5D64",
"l  c #675F6D",
"z  c #7A5D66",
"x  c #7D6269",
"c  c #6A6A73",
"v  c #6B6C7C",
"b  c #6A6472",
"n  c #717277",
"m  c #8C3B04",
"M  c #8F3C08",
"N  c #843409",
"B  c #913F02",
"V  c #964303",
"C  c #994501",
"Z  c #9E4809",
"A  c #964C18",
"S  c #A34D08",
"D  c #AE5705",
"F  c #B65D04",
"G  c #B95F05",
"H  c #B35B0C",
"J  c #B05705",
"K  c #BD6A04",
"L  c #B36A08",
"P  c #BA670A",
"I  c #BB6811",
"U  c #91623A",
"Y  c #C26F06",
"T  c #CB6E05",
"R  c #C16504",
"E  c #C77504",
"W  c #D57303",
"Q  c #C1711B",
"!  c #815954",
"~  c #896549",
"^  c #87644A",
"/  c #9D7051",
"(  c #A3744E",
")  c #AA794D",
"_  c #A8774C",
"`  c #B77C48",
"'  c #A47955",
"]  c #85686B",
"[  c #9E7C65",
"{  c #A17E63",
"}  c #D58304",
"|  c #D78B05",
" . c #D88907",
".. c #E29303",
"X. c #EC9E02",
"o. c #E39C12",
"O. c #EDA106",
"+. c #EEA30B",
"@. c #EEA716",
"#. c #CC822A",
"$. c #D18A36",
"%. c #EFAE2B",
"&. c #F0AF33",
"*. c #E9A738",
"=. c #BE8A59",
"-. c #A98466",
";. c #A68262",
":. c #BD8F6A",
">. c #DB9841",
",. c #E1A24F",
"<. c #F7BD4D",
"1. c #CC9D6E",
"2. c #D1A16F",
"3. c #D2A272",
"4. c #F0BB69",
"5. c #E8BE72",
"6. c #F9C468",
"7. c #6E7080",
"8. c #7B7D8C",
"9. c #707281",
"0. c #877883",
"q. c #9F7F83",
"w. c #7E818F",
"e. c #7F8290",
"r. c #838593",
"t. c #868997",
"y. c #898B9A",
"u. c #8F8793",
"i. c #94919D",
"p. c #A88A88",
"a. c #B49893",
"s. c #B29795",
"d. c #979AA6",
"f. c #989BA7",
"g. c #9B9EAA",
"h. c #9FA2AE",
"j. c #A0A3AF",
"k. c #A6A8B3",
"l. c #B1AEB5",
"z. c #B3B1B7",
"x. c #BAA7AB",
"c. c #D3AF8B",
"v. c #DBB58F",
"b. c #DBB691",
"n. c #C6A287",
"m. c #FFD282",
"M. c #BCBDC5",
"N. c #BEBFC8",
"B. c #C3C4CC",
"V. c #C7C8CF",
"C. c #CACBD1",
"Z. c #CFD0D6",
"A. c #D4D5DA",
"S. c #DADADF",
"D. c #E2D5CC",
"F. c #EFEFF1",
"G. c #F2F1F3",
"H. c #F8F8F8",
"J. c None",
/* pixels */
"J.J.J.J.J.J.J.J.J.J.J.J.J.J.J.J.J.J.J.J.J.J.J.J.J.J.J.J.J.J.J.J.",
"J.J.J.J.J.J.J.J.J.J.J.J.J.J.J.J.J.J.J.J.J.J.J.J.J.J.J.J.J.J.J.J.",
"J.J.J.J.J.J.J.J.J.J.J.J.J.J.J.J.J.J.J.J.J.J.J.J.J.J.J.J.J.J.J.J.",
"J.J.J.J.J.J.J.J.J.J.J.J.J.J.J.J.J.J.J.J.J.J.J.J.J.J.J.J.J.J.J.J.",
"J.J.J.J.J.J.8 8 8 J.J.J.J.J.J.J.J.J.J.J.J.J.J.8 8 8 J.J.J.J.J.J.",
"J.J.J.J.% $ s c r # 7 J.J.J.J.J.J.J.J.J.J.0 $ t v i $ % J.J.J.J.",
"J.J.J.4 + s y.8.9.p @ = = = = = = = = @ = + y r.r.7.p + 4 J.J.J.",
"J.J.. S G [ g.e.y./ E | | | | | | | | | | E ( g.t.r.{ G S . J.J.",
"J.J.. o O ] k.g.g.d + @ @ @ @ @ = @ @ = @ + j k.g.g.x + o . J.J.",
"J.J.# H T b.V.j.h.'  .+.+.+.+.+.X.X.X.O.X.} 3.A.j.j.;.T H . J.J.",
"J.J.# =.>.b.V.S.B.) ,.m.m.m.m.<.O.O.O.O.X.} 3.A.C.Z.-.$.=.# J.J.",
"J.J.. ` Q b.H.H.H.3.>.4.4.4.4.4.4.4.4.*...E 3.H.H.H.v.#.` . J.J.",
"J.q # A P b.H.H.H.3.Q Q Q Q Q Q Q Y P R K P 3.H.H.H.b.I A # q J.",
"9 0.e ` Q b.H.H.H.1.>.6.6.6.6.6.6.&.X.X.X.} 3.H.H.H.b.Q ` e ] 9 ",
"& x.a H W b.G.F.G.3.} +.O.O.@.%.%.@.X.X.O.W 1.F.H.G.v.T H a p.% ",
"6 0.e J T -.Z.M.A.3.W O...o.5.D.D.5.o...X.} ) B.V.C.v.T J y z 6 ",
"9 x q Z D [ h.h.B.1.F T A a.s.e e s.p.A T P / g.h.N.n.J Z q z 9 ",
"J.8 . = - ] g.h.h.! ; = g z.z.i.i.z.z.g = > ! g.g.j.] > = # 0 J.",
"J.J.. S F [ g.d.d.( K N x n n k.k.c c h N R ( g.f.g.[ F S . J.J.",
"J.J.* V F ;.g.8.y._ F , p.F.F.F.F.B.d.h 1 F ' d.r.0.;.F V * J.J.",
"J.# K O.T ~ r.8.t._ W M h f.h.d.f.h.r.r M W U e.r.v ~ E X.L % J.",
"J.# L K D ^ v v v U J , h h.f.k k h.r.r < D U v v v ^ D Y L % J.",
"J.#       t v v b w     h h.h.k k f.r.r     w c v v t       % J.",
"J.J.J.& o O O o o X X X h f.h.M.M.d.w.r X X X O O O O X & J.J.J.",
"J.J.J.% 1 V V V V : < 3 d i.h.f.d.r.c w , < > V V V V < % J.J.J.",
"J.J.J.% 1 C C C C ; 1 V 2 h u.0.l l w 3 V < : C C C C 1 % J.J.J.",
"J.J.J.$ 1 V C C C : 1 C V 5 & & * * 2 V C 1 > C C C C < % J.J.J.",
"J.J.J.& < V m V B - , V B m m M m m m B B , - B m B V < % J.J.J.",
"J.J.J.J.* o X X X X X X o X X o X X o X X X . o o X o * J.J.J.J.",
"J.J.J.J.J.J.J.J.J.J.J.J.J.J.J.J.J.J.J.J.J.J.J.J.J.J.J.J.J.J.J.J.",
"J.J.J.J.J.J.J.J.J.J.J.J.J.J.J.J.J.J.J.J.J.J.J.J.J.J.J.J.J.J.J.J.",
"J.J.J.J.J.J.J.J.J.J.J.J.J.J.J.J.J.J.J.J.J.J.J.J.J.J.J.J.J.J.J.J."
};
