/* XPM */
static char *result[] = {
/* columns rows colors chars-per-pixel */
"32 32 5 1 ",
"  c black",
". c #828200",
"X c yellow",
"o c gray51",
"O c None",
/* pixels */
"OOOOOOOOOOOOOOOOOOOOOOOOOOOOOOOO",
"OOOOOOOOOOOOOOOOOOOOOOOOOOOOOOOO",
"OOOOOOOOOOOOOOOOOOOOOOOOOOOOOOOO",
"OOOOOOOOOOOOOOOOOOOOOOOOOOOOOOOO",
"OOOOOOOOOOOOOOOOOOOOOOOOOOOOOOOO",
"OOOOOOOOOOOOOOOOOOOOOOOOOOOOOOOO",
"OOOOOOOOOOOOOOOOOOOOOOOOXOOOOOOO",
"OOOOOOOOOOOOOOOOO  OOOOOXO OOOOO",
"OOOOOOOOOOOOOOOX.o   OO.XO OOOOO",
"OOOOOOOOOOOOOOOX.o   oXXX  OOOOO",
"OOOOOOOOOOOOOOXXXXXXXXXXo  OOOOO",
"OOOOOOOOOOOOOXXXXXXXXXX.  OOOOOO",
"OOOOOOOOOOOXXXXXXX.oooo  OOOOOOO",
"OOOOOOOOOOOXXXXXXX.oooo  OOOOOOO",
"OOOOOOOOOOXXXX.XXXX..   OOOOOOOO",
"OOOOOOOOOXXXXXoXXXXXX.oOOOOOOOOO",
"OOOOOOOOXXXXXo XXoXXXX.OOOOOOOOO",
"OOOOOO.XXX.oo  XX.oXXXX.OOOOOOOO",
"OOOOOXXX.o    OXXXooo.XX.OOOOOOO",
"OOOOOOoo     OOXXXo   oXXOOOOOOO",
"OOOOOOOOOOOOOOOXXXo  O OXOOOOOOO",
"OOOOOOOOOOOOOOOXXXo  O OXOOOOOOO",
"OOOOOOOOOOOOOOO.XXo  OOOOOOOOOOO",
"OOOOOOOOOOOOOOOOXXo  OOOOOOOOOOO",
"OOOOOOOOOOOOOOOO.Xo  OOOOOOOOOOO",
"OOOOOOOOOOOOOOOOOXo  OOOOOOOOOOO",
"OOOOOOOOOOOOOOOOO.oOOOOOOOOOOOOO",
"OOOOOOOOOOOOOOOOOOOOOOOOOOOOOOOO",
"OOOOOOOOOOOOOOOOOOOOOOOOOOOOOOOO",
"OOOOOOOOOOOOOOOOOOOOOOOOOOOOOOOO",
"OOOOOOOOOOOOOOOOOOOOOOOOOOOOOOOO",
"OOOOOOOOOOOOOOOOOOOOOOOOOOOOOOOO"
};
