/* XPM */
static char *result[] = {
/* columns rows colors chars-per-pixel */
"32 32 15 1 ",
"  c #282828",
". c #684820",
"X c #385868",
"o c #404068",
"O c #B07040",
"+ c #4848B0",
"@ c #6868F0",
"# c #608898",
"$ c #9090A8",
"% c #F8C090",
"& c #98C0D0",
"* c #C8C0D0",
"= c #D8F8F8",
"- c #F8F8F8",
"; c None",
/* pixels */
";;;;;;;;;;;;;;;;;;;;;;;;;;;;;;;;",
";;;;;;;;;;  XX;;;;;;;;;;;;;;;;;;",
";;;;;;;;; &===X;;;;;;;;;;;;;;;;;",
";;;;;;;; &==& =X;;;;;;;;;;;;;;;;",
";;;;;;;; X#&#==X;;;;;;;;;;;;;;;;",
";;;;;;;;;   X# ;;;;;;;;;;;;;;;;;",
";;;;;    X&X&=   ;;;;;;;;;;;;;;;",
";;;; O%% #XX  .OO ;;;;;;;;;;;;;;",
";;;;O%%O..O%%O ... ;;;;;;;;;;;;;",
";;; .....O%%%%.  . ;;;;;;;;;;;;;",
";;;; =#  .OOOO. & ;;;;;;;;;;;;;;",
";;;;=& X#X....  & ;;;;;;;;;;;;;;",
";;; # ;;  X  ;; X ;;;;;;;;;;;;;;",
";;;  ;;;; & ;;; #& ;;;;;;;;;;;;;",
";;;  ;;; X#X;;;; & ;;;;;;;;;;;;;",
";;;  ;; oo   ;;;; &X;;;;;;;;;;;;",
";;; = ; +@++o ;;;; &; X;;;;;;;;;",
";;; #= o++@+oXX;;; # &X;;;;;;;;;",
";;;;=# oo+@@oX#X;;;X&&X;;;;;;;;;",
";;;;&  o& @@o X&X;; #X ;;;;;;;;;",
";;;;;; = o+oo; # ;; X*o;;;;;;;;;",
";;;;; #& oo;;; & ;;  **o;;;;;;;;",
";;;;; # ;oo;;; & ;; ;o-$ ;;;;;;;",
";;;;; & ;o;;;; & ;;;;o$-$ ;;;;;;",
";;;;; & ;;;;;; # ;;;;;o*-$ ;;;;;",
";;;;; & ;;;;; OO. ;;;;;o--$ ;;;;",
";;;; #& ;;;;; ..O. ;;;;;o--$;;;;",
";;;; O. ;;;;;  .&&# ;;;;;o*- ;;;",
";;; OOO                 ;;;;o$ ;",
"    O&.                ;;;;;;ooo",
";   O=             ;;;;;;;;;;;;;",
";;;      ;;;;;;;;;;;;;;;;;;;;;;;"
};
