/* XPM */
static char *result[] = {
/* columns rows colors chars-per-pixel */
"32 32 15 1 ",
"  c gray11",
". c #4D311F",
"X c #524C37",
"o c #68422B",
"O c #775331",
"+ c #444457",
"@ c #992E00",
"# c #A46644",
"$ c #D4B31F",
"% c #EEB62F",
"& c #D19262",
"* c #F7E26B",
"= c #F7B080",
"- c #E4DDAF",
"; c None",
/* pixels */
";;;;;;;;;;;;;;;;;;;;;;;;;;;;;;;;",
";;;;;;;;;;;;;;;;;;;;;;;;;;;;;;;;",
";;;;;;;;;;;;;;;;;;;;;;;;;;;;;;;;",
";;;;;;;;;;;;;;;;;;;;;;;;;;;;;;;;",
";;;;;;;;;;;;;;;;;;;;;;;;;;;;;;;;",
";;;;;;;;;;;;;;;;;    ;;;;;;;;;;;",
";;;;;;;;;;;;;;;; **** ;;;;;;;;;;",
";;;;;;;;;;;;;;;; %    ;;;;;;;;;;",
";;;;;;;;;;      % --- ;;;;;;;;;;",
";;;;;;;;; *****%   -  ;;;;;;;;;;",
";;;;;;;; *        - - ;;;;;;;;;;",
";;;;;;;; %      -  -  ;;;;;;;;;;",
";;;;;;;; %           ;;;;;;;;;;;",
";;;;;;;;; .ooooo==o  ;;;;;;;;;;;",
";;;;;;;;; #oooo=== = ;;;;;;;;;;;",
";;;;;;;;; o##o=   == ;;;;;;;;;;;",
";;;;;;;;; ooo     == ;;;;;;;;;;;",
";;;;;;;;; ooo&=   === ;;;;;;;;;;",
";;;;;;;;; oooo&====== ;;;;;;;;;;",
";;;;;;;;;; oo&&&&&&& ;;;;;;;;;;;",
";;;;;;;;;;; &&&&&== ;;;;;;;;;;;;",
";;;;;;;;;;;; @@@@$X ;;;;;;;;;;;;",
";;;;;;;;;;; @@  @*X ;;;;;;;;;;;;",
";;;;;;;;;;; @ == $O ;;;;;;;;;;;;",
";;;;;;;;;;; @ =& XX ;;;;;;;;;;;;",
";;;;;;;;;;;;    +  ;;;;;;;;;;;;;",
";;;;;;;;;;;;; ++++ ;;;;;;;;;;;;;",
";;;;;;;;;;;;;;;;;;;;;;;;;;;;;;;;",
";;;;;;;;;;;;;;;;;;;;;;;;;;;;;;;;",
";;;;;;;;;;;;;;;;;;;;;;;;;;;;;;;;",
";;;;;;;;;;;;;;;;;;;;;;;;;;;;;;;;",
";;;;;;;;;;;;;;;;;;;;;;;;;;;;;;;;"
};
