/* XPM */
static char *result[] = {
/* columns rows colors chars-per-pixel */
"32 32 13 1 ",
"  c gray11",
". c #2F303C",
"X c #4D311F",
"o c #5F513C",
"O c #68422B",
"+ c #992E00",
"@ c #A46644",
"# c #D4B31F",
"$ c #EEB62F",
"% c #D19262",
"& c #F7E26B",
"* c #F7B080",
"= c None",
/* pixels */
"================================",
"================================",
"================================",
"================================",
"================================",
"===============   ==============",
"============== &&& =============",
"============  $   $  ===========",
"==========             =========",
"========= &           & ========",
"=========  &$$     $$&  ========",
"=========     &&$&&     ========",
"==========             =========",
"========== OXX     XXO =========",
"========== O@OOOOOOO@O =========",
"========== OO@@O@O@@OO =========",
"========== OOOOOOOOOOO =========",
"========== OOOOOOOOOOO =========",
"=========== OO OOO OO ==========",
"=========== OO OOO OO ==========",
"===========  OO O OO  ==========",
"========== **       ** =========",
"========== %+++++++++% =========",
"===========  +++#+++  ==========",
"============ #&#.#&# ===========",
"============ ....... ===========",
"============= o  .. ============",
"================================",
"================================",
"================================",
"================================",
"================================"
};
