/* XPM */
static char *result[] = {
/* columns rows colors chars-per-pixel */
"32 32 59 1 ",
"  c #3E403F",
". c #3E3F41",
"X c #424445",
"o c #464847",
"O c #464749",
"+ c #474B4E",
"@ c #4A4B4D",
"# c #4D4F51",
"$ c #4E5153",
"% c #525354",
"& c #565857",
"* c #555659",
"= c #57595A",
"- c #5A5B5D",
"; c #5E605F",
": c #5D5E61",
"> c #5F6163",
", c #626365",
"< c #656669",
"1 c #66696C",
"2 c #6B6B6C",
"3 c #6D6F73",
"4 c #6E7172",
"5 c #717375",
"6 c #737679",
"7 c #76797B",
"8 c #7A7C7D",
"9 c #7B7D81",
"0 c #7E8284",
"q c #828385",
"w c #868887",
"e c #838589",
"r c #86898C",
"t c #8A8B8E",
"y c #8B8E91",
"u c #8E9194",
"i c #919395",
"p c #939699",
"a c #95999C",
"s c #9A9C9E",
"d c #9B9DA1",
"f c #9EA2A6",
"g c #A1A4A6",
"h c #A6A8A7",
"j c #A2A6A9",
"k c #A5A9AD",
"l c #AAABAD",
"z c #AAADB1",
"x c #ADB0B4",
"c c gray70",
"v c #B5B6B8",
"b c #BDBEC1",
"n c #C1C2C4",
"m c #C6C8C7",
"M c #CACACC",
"N c #D2D3D5",
"B c #D7D8DA",
"V c gainsboro",
"C c None",
/* pixels */
"CCCCCCCCCCCCCCCCCCCCCCCCCCCCCCCC",
"CCCCCCCCCCCCCCCCCCCCCCCCCCCCCCCC",
"CCCCCCCCCCCCCCCCCCCCCCCCCCCCCCCC",
"CCCCCCCCCCCCCCCCCCCCCCCCCCCCCCCC",
"CCCCCCCCCCCCCCCkCCCCCCCCCCCCCCCC",
"CCCCCCCCCCCq9b89eaCCCCCCCCCCCCCC",
"CCCCCCCCCCky44rre6>iCCCCCCCCCCCC",
"CCCCCCCCCxy6<2r0,=-:->zCCCCCCCCC",
"CCCCCCCCxjjfup:$:-3&<==&&CCCCCCC",
"CCCCCCCNxjufuf9**-,,-><=-<CCCCCC",
"CCCCCCCdltpkp3<6:&&,$--=%@CCCCCC",
"CCCCCClfipukf:76>@,7%&%:#OCCCCCC",
"CCCCCCifsjfyp:861#&95>*:OOwCCCCC",
"CCCCCpagljfdie>4e>#>,e-:@@%CCCCC",
"CCCCCzxfkrfkdyr<3e6<2y9@,X@CCCCC",
"CCCCCbjxdpg8eiye1i69498#<XXgCCCC",
"CCCCClkjpj4isyuyr991>6%#%XX<CCCC",
"CCCChsjsdi0ypeqrr9663$@-@.X=CCCC",
"CCCCpjijfkisj<tyr6,>-O#:XXX3CCCC",
"CCCNgskgufgaatiiit6<#-X*+#&CCCCC",
"CCCcyfkqffyfuu<5yr42@-;%@@mCCCCC",
"CCCspklryfj0wqw7q7<--%X#@OCCCCCC",
"CCCMagguggr8pftir3*= #@OO@CCCCCC",
"CCCCyajjsxlijliu6,<@@@%%X&CCCCCC",
"CCCCieg700<qtl8y1%6#@&O@6CCCCCCC",
"CCCCnesu89&<%67u:%=&#X@>CCCCCCCC",
"CCCCCCyp0r57%OO&:<:,*#yCCCCCCCCC",
"CCCCCCCv0er2%,,:4,@&8CCCCCCCCCCC",
"CCCCCCCCBeMCCMCCCCVCCCCCCCCCCCCC",
"CCCCCCCCCCCCCCCCCCCCCCCCCCCCCCCC",
"CCCCCCCCCCCCCCCCCCCCCCCCCCCCCCCC",
"CCCCCCCCCCCCCCCCCCCCCCCCCCCCCCCC"
};
