/* XPM */
static char *result[] = {
/* columns rows colors chars-per-pixel */
"32 32 97 2 ",
"   c #3E403F",
".  c #3E3F41",
"X  c #424445",
"o  c #464847",
"O  c #464749",
"+  c #474B4E",
"@  c #4A4B4D",
"#  c #4D4F51",
"$  c #4E5153",
"%  c #525354",
"&  c #565857",
"*  c #555659",
"=  c #57595A",
"-  c #5A5B5D",
";  c #5E605F",
":  c #5D5E61",
">  c #5F6163",
",  c #626365",
"<  c #656669",
"1  c #66696C",
"2  c #6B6B6C",
"3  c #6D6F73",
"4  c #6E7172",
"5  c #717375",
"6  c #737679",
"7  c #76797B",
"8  c #7A7C7D",
"9  c #8A877F",
"0  c #C5A466",
"q  c #CBA567",
"w  c #C7A867",
"e  c #C6A569",
"r  c #CAA56A",
"t  c #CDAA6C",
"y  c #D1AC6E",
"u  c #D7B16E",
"i  c #D9B36F",
"p  c #CEAD71",
"a  c #C6A97B",
"s  c #C8AB7E",
"d  c #D2AD71",
"f  c #CFB070",
"g  c #CCB07E",
"h  c #D5B273",
"j  c #DAB475",
"k  c #DEB976",
"l  c #D5B578",
"z  c #DCB679",
"x  c #DDBA7A",
"c  c #E1BA77",
"v  c #E2B57A",
"b  c #E2BD7B",
"n  c #E8BD7F",
"m  c #E6C17C",
"M  c #EAC37E",
"N  c #7B7D81",
"B  c #7E8285",
"V  c #828385",
"C  c #868887",
"Z  c #838589",
"A  c #86898C",
"S  c #8A8B8E",
"D  c #8B8E91",
"F  c #8E9194",
"G  c #919395",
"H  c #939699",
"J  c #95999C",
"K  c #9A9C9E",
"L  c #9B9DA1",
"P  c #9EA2A6",
"I  c #A1A4A6",
"U  c #A6A8A7",
"Y  c #A2A6A9",
"T  c #A5A9AD",
"R  c #AAABAD",
"E  c #AAADB1",
"W  c #ADB0B4",
"Q  c #C7AE84",
"!  c #C9B082",
"~  c #D1B582",
"^  c #D4B887",
"/  c #DCBB82",
"(  c #D4BA8B",
")  c #DABE8C",
"_  c #E5BF81",
"`  c #E8BF82",
"'  c #DCC28E",
"]  c #DFC490",
"[  c #E6C180",
"{  c #ECC581",
"}  c #EFC882",
"|  c #E3C88F",
" . c #F1CA85",
".. c #E2C692",
"X. c #E4C892",
"o. c #E8CB95",
"O. c #BEBFC1",
/* pixels */
"h k b m M [ c d t y j [ { ` y q 0 r r e 0 t y j x j h h b ` z d ",
"j b _ x y e e r t w r 0 e e 0 t t d d d i c c b n x b M x j y d ",
"c b h y t e r t h y y w q t y y h z h z c c c n z h z k h y y d ",
"z y w w e p p z m M M M n n b b m M  .{ M M c y t p h f t d h c ",
"m b k k x m x m m j u h y j l T y q y y y q q q z z l h l j x m ",
"m m } } } { m h y w e B 8 t 8 N V J r q r q y t c v x b x b M M ",
"k b m M M c j y t p T F 5 4 Z A C 6 , F y t d d h l l b b m { M ",
"y d d d y t t t y W D 5 < 2 Z B , = - : - , R z d h j c { m j u ",
"y j d t t p h z W Y I P F H : $ > - 4 * < - & * = / z k h z h d ",
"j d d t p h l b W I F Y G P N * = - > > - > 1 & - < x t y y y t ",
"j z l j h x b P R S H T H 3 1 6 : = & , $ - - & % @ h t y t h h ",
"b b _ _ b k R P G J F Y P : 6 6 : @ , 7 % & % > # O x z x x x x ",
"M } { } M c F P K Y P D H : 7 6 1 # - N 4 > & : @ o V k x b m m ",
"[ c m { m J J P R Y P L F Z , 4 Z : # : , Z - : @ @ $ [ m m M { ",
"h y p t t R W P T Z P R P S A , 3 Z 6 < 2 F B @ > X @ m M M b u ",
"t t w w l O.Y W L J P 8 Z F D A 1 F 6 N 4 8 7 $ , o X P m k u f ",
"l f h h y R R Y H Y 5 F L D F D A B N 1 : 6 % # % X X < d h y d ",
"x m m M U L Y J L G B D G C V A Z B 4 6 3 % @ - + . o = y t f h ",
"m M m k H Y H Y P T G L Y < S S A 6 , < - O # : X X . 4 j k x x ",
"m m z z I K T I G P I J J S G G G A 6 < $ - X = + # * n x x x m ",
"x h t y D P T V L P D P F D 2 5 D A 4 < @ ; ; # O # } c m b m M ",
"y t w K H Y E C D P Y B C V V 7 N 8 < - - % X # # o t t l m b h ",
"d d d d H Y Y F I U A 8 J P S H A 2 = *   # @ @ o + w t l b b i ",
"h h z x D J Y Y K E R G Y R G D 7 < < # @ @ # % X & f l M b b x ",
"d j k b G Z P 8 B B , V S E 8 D 1 % 5 @ O = O @ 6 z k k k h j y ",
"d j c b b Z L F N N - , = 4 7 G - * = - @ o @ - i z c x j h d d ",
"l z b b [ m D H N A 5 8 % O O % : < - , & $ S v k m x h d p d d ",
"z c b n y d t Q 9 Z A 2 % , , : 4 < @ = 8 t y v j u t t y d h l ",
"b n u t y r d y ( B d t y j j j u y t t t j j b h p t h h h x x ",
"m z d p y y d d j j d j j j z c v j u u j j v c d d h l z z b b ",
"z u h l z b b z i j j c c b b M {  . .{ { ` v d d z x x v b _ _ ",
"( ( ( ] ] X.o...Q a ~ X...X.X.X.) ( ) ) _ ~ s Q ( ..] ) ] ....) "
};
