/* XPM */
static char *result[] = {
/* columns rows colors chars-per-pixel */
"32 32 154 2 ",
"   c #1C1517",
".  c #1A161B",
"X  c #1B191D",
"o  c #221A15",
"O  c #21171C",
"+  c #241B1D",
"@  c #2B1D1C",
"#  c #241717",
"$  c #321F1B",
"%  c #2E211F",
"&  c #3C241C",
"*  c #36231F",
"=  c #1D1C21",
"-  c #221C23",
";  c #1E2023",
":  c #232126",
">  c #2C2324",
",  c #262529",
"<  c #29252A",
"1  c #2B292E",
"2  c #352622",
"3  c #2C2D33",
"4  c #222E3B",
"5  c #222A34",
"6  c #312E33",
"7  c #382D30",
"8  c #2A3339",
"9  c #343336",
"0  c #363439",
"q  c #3C3C3D",
"w  c #3C3031",
"e  c #4A271C",
"r  c #4A291C",
"t  c #542C1B",
"y  c #5B2F1D",
"u  c #473D1F",
"i  c #483E1F",
"p  c #5A3A19",
"a  c #5E301C",
"s  c #6E3414",
"d  c #462A22",
"f  c #4B2D22",
"g  c #442B2C",
"h  c #512F23",
"j  c #483E20",
"k  c #4A3326",
"l  c #5A3123",
"z  c #553122",
"x  c #41393B",
"c  c #672927",
"v  c #672523",
"b  c #782D2A",
"n  c #653724",
"m  c #683722",
"M  c #6C3B24",
"N  c #733D24",
"B  c #673130",
"V  c #6B3132",
"C  c #7C3733",
"Z  c #744413",
"A  c #67561D",
"S  c #706116",
"D  c #774026",
"F  c #794226",
"G  c #75412A",
"H  c #7A4228",
"J  c #644A37",
"K  c #263848",
"L  c #333B42",
"P  c #3D3E43",
"I  c #383F48",
"U  c #403F45",
"Y  c #384146",
"T  c #3A454C",
"R  c #36434A",
"E  c #3D4B55",
"W  c #3E5159",
"Q  c #4C4C4D",
"!  c #414C55",
"~  c #42545B",
"^  c #726152",
"/  c #465761",
"(  c #495560",
")  c #4A5C66",
"_  c #4B5D68",
"`  c #475964",
"'  c #555961",
"]  c #4F616C",
"[  c #52626C",
"{  c #5D6167",
"}  c #5C6C75",
"|  c #566873",
" . c #60646C",
".. c #656465",
"X. c #6E6F73",
"o. c #687277",
"O. c #8C3F13",
"+. c #803C3A",
"@. c #A03532",
"#. c #A93732",
"$. c #A63930",
"%. c #AB3832",
"&. c #955D0D",
"*. c #974112",
"=. c #925516",
"-. c #A75F0C",
";. c #B34B17",
":. c #A45E13",
">. c #9C7617",
",. c #AA670A",
"<. c #86473F",
"1. c #DA6117",
"2. c #E47D19",
"3. c #B54742",
"4. c #A2534B",
"5. c #A87044",
"6. c #B07A4D",
"7. c #AF941F",
"8. c #B2951F",
"9. c #AA8F20",
"0. c #AF9420",
"q. c #DA8C0F",
"w. c #C69B1B",
"e. c #EC9003",
"r. c #C8AC11",
"t. c #D7B417",
"y. c #F7BA13",
"u. c #F9B912",
"i. c #F0B719",
"p. c #ECCF0D",
"a. c #F3D910",
"s. c #F5C13F",
"d. c #647682",
"f. c #757C83",
"g. c #7C8A91",
"h. c #8A888A",
"j. c #859097",
"k. c #9A9A9C",
"l. c #8F9BA1",
"z. c #929EA6",
"x. c #95A2A7",
"c. c #A4AFBC",
"v. c #A6B2BA",
"b. c #B0B7BA",
"n. c #F6D091",
"m. c #A3AFC0",
"M. c #A3B0C0",
"N. c #B9BFC4",
"B. c #CDCDD1",
"V. c #CDD3D4",
"C. c #DDE0E0",
"Z. c #F3F5F6",
"A. c #FBFCFD",
"S. c None",
/* pixels */
"S.S.S.S.S.S.S.S.S.S.S.S.S.S.S.S.S.S.S.S.S.S.S.S.S.S.S.S.S.S.S.S.",
"S.S.S.S.S.S.S.S.S.S.S.S.S.S.S.S.S.S.S.S.S.S.S.S.S.S.S.S.S.S.S.S.",
"S.S.S.S.S.S.S.S.S.S.S.S.S.S.S.S.S.S.S.S.S.S.S.S.S.S.S.S.S.S.S.S.",
"S.S.S.S.S.S.S.S.S.S.S.S.S.B 4.0 S.S.S.S.S.S.^ Y S.S.S.S.S.S.S.S.",
"S.S.S.S.S.S.S.S.S.S.S.S.S.C B @.c S.S.S.S.S.J , S.S.S.S.S.S.S.S.",
"S.S.S.S.S.S.S.S.S.S.S.S.S.S.S.w v g S.S.S.p p t X Q S.S.S.S.S.S.",
"S.S.S.S.S.S.S.S.S.S.S.S.S.S.S.S.S.S.S.S.S.l 5.H S.S.- S.S.S.S.S.",
"S.S.S.S.S.S.S.S.S.S.S.- X - = = S.S.S.S.S.x 2 @ S.S.S.: S.S.S.S.",
"S.S.S.S.S.S.S.S.S.S.T P 3.+.E Y S.S.S.S.X . > X . X X , X X S.S.",
"S.S.S.S.S.S.S.S.S.9 ) #.#.I 8 S.S.S.S.d.g.] ) ) _ ) ] ) ~ S.S.S.",
"S.S.S.S.S.S.S.S.S.q ( @.#.I W : S.S.T } Z.] ) ] Z._ ) ( , S.S.S.",
"S.S.S.S.S.S.S.S.S.S.U . + . = = S.0 | ] ~ Z.Z.V.) ) ) ; S.S.S.S.",
"S.S.S.S.S.S.S.S.k.T ( <.<.g ( E S.~ ] / A.W b.o.[ ` W S.S.S.S.S.",
"S.S.S.S.S.S.S.S.! [ x #.$.E T 1 S.T | / N.B.C.A._ ) W S.S.S.S.S.",
"S.S.S.S.S.S.q S.` 3 #.#.O | 8 S.S.T ] A.R A.A.B.Z.g.) ; S.S.S.S.",
"S.S.S.S.S.Q S.S.d.3 %.#.O ) 8 S.S.9 / ) _ _ [ [ } ) _ L S.S.S.S.",
"S.S.S.S.0 S.S.S.( E b %.b ) ` 8 S.S.R ) ) ) ) ) _ _ ] ` 8 S.S.S.",
"S.S.S.P S.S.S.S.S.0 0 9 X 9 1 0 0 S.S.9 0 0 > = 0 0 9 9 0 0 S.S.",
"S.S.Q S.S.S.S.S.S.S.S.S.% P S.0 S.S.< S.S.S.J , ; 6 3 1 3 , 1 < ",
"S.X S.S.1 A.m.m.M.M.m.m.m.c.X S.S.1 q.1.1.;.J % # X X = = . = X ",
"= 9 9 9 9 > 3 3 = , 3 = X 3 , S.S...e @ @ s :.*.9.7.8.8.9.0.7.6 ",
"0 =.=.O.O.>.s.n.y.y.y.y.u.u.w.S.S.S.d 6.. X J k i.,.&.&.&.&.&.1 ",
"S.S.S.S.S.3 O - + + O + X Z e.t.j j i i i i i A -.r y y y y & S.",
"S.S.S.S.S.S.S.G H H f a.% G e o + # # o o o o # G G h.c.. G f S.",
"S.S.S.S.S.S.S.@ F m h r.o F F n @ l N N N @ @ M F * o.K v.F 7 S.",
"S.S.S.S.S.S.S.< h - % p.* & 2 h.{ { % f . X.{ ' f @  .5 z.e 9 S.",
"S.S.S.S.S.S.S.S.f N S p.t.s h l.K f.d F . 4 4 j.F F & o y 2 S.S.",
"S.S.S.S.S.S.S.S.S.. . q.    X 3 v.L     . v.x..   .     . S.S.S.",
"S.S.S.S.S.S.S.S.S.S.& M H H H N f n H y F e e F H N H t S.S.S.S.",
"S.S.S.S.S.S.S.S.S.S.S.S.S.S.S.S.S.S.S.S.S.S.S.S.S.S.S.S.S.S.S.S.",
"S.S.S.S.S.S.S.S.S.S.S.S.S.S.S.S.S.S.S.S.S.S.S.S.S.S.S.S.S.S.S.S.",
"S.S.S.S.S.S.S.S.S.S.S.S.S.S.S.S.S.S.S.S.S.S.S.S.S.S.S.S.S.S.S.S."
};
